<svg width="1109" height="512" fill="none" xmlns="http://www.w3.org/2000/svg"><path d="M639.253 199.4c-8.267 0-16.067-1.4-23.4-4.2-7.333-2.933-13.8-7.2-19.4-12.8-5.467-5.6-9.8-12.533-13-20.8-3.2-8.4-4.8-18.067-4.8-29 0-10.8 1.667-20.4 5-28.8 3.333-8.533 7.8-15.733 13.4-21.6 5.6-5.867 12.133-10.333 19.6-13.4 7.467-3.067 15.333-4.6 23.6-4.6 8.4 0 15.933 1.733 22.6 5.2 6.667 3.333 12.2 7.267 16.6 11.8l-15.6 18.8c-3.333-3.067-6.867-5.533-10.6-7.4-3.6-2-7.733-3-12.4-3-4.4 0-8.6 1-12.6 3-3.867 1.867-7.267 4.6-10.2 8.2-2.8 3.6-5.067 8-6.8 13.2-1.6 5.2-2.4 11.067-2.4 17.6 0 13.467 2.867 23.933 8.6 31.4 5.733 7.333 13.4 11 23 11 5.333 0 10.067-1.133 14.2-3.4 4.267-2.4 8-5.333 11.2-8.8l15.6 18.4c-10.933 12.8-25 19.2-42.2 19.2zm63.606-2.4V56.8h29.4v34.4l-1.4 17.8c3.734-3.333 8.067-6.4 13-9.2 4.934-2.933 10.8-4.4 17.6-4.4 10.8 0 18.6 3.533 23.4 10.6 4.934 7.067 7.4 16.867 7.4 29.4V197h-29.4v-57.8c0-7.2-1-12.133-3-14.8-1.866-2.667-4.933-4-9.2-4-3.733 0-6.933.867-9.6 2.6-2.666 1.6-5.6 3.933-8.8 7v67h-29.4zm162.658 2.4c-7.066 0-13.666-1.133-19.8-3.4-6.133-2.4-11.466-5.8-16-10.2-4.533-4.533-8.066-10-10.6-16.4-2.533-6.4-3.8-13.733-3.8-22 0-8 1.334-15.2 4-21.6 2.667-6.533 6.134-12 10.4-16.4 4.4-4.533 9.4-8 15-10.4 5.6-2.4 11.4-3.6 17.4-3.6 7.067 0 13.2 1.2 18.4 3.6 5.334 2.4 9.734 5.733 13.2 10 3.6 4.267 6.267 9.333 8 15.2 1.734 5.733 2.6 12 2.6 18.8a68.8 68.8 0 01-.4 7.6c-.266 2.4-.533 4.2-.8 5.4h-59.4c1.334 7.2 4.267 12.533 8.8 16 4.667 3.333 10.334 5 17 5 7.067 0 14.2-2.2 21.4-6.6l9.8 17.8c-5.066 3.467-10.733 6.2-17 8.2-6.133 2-12.2 3-18.2 3zm-22-62.8h35.8c0-5.6-1.266-10.133-3.8-13.6-2.533-3.467-6.8-5.2-12.8-5.2-4.666 0-8.8 1.533-12.4 4.6-3.466 3.067-5.733 7.8-6.8 14.2zm107.967 62.8c-4.533 0-8.666-.8-12.4-2.4-3.6-1.467-6.666-3.533-9.2-6.2-2.533-2.8-4.533-6-6-9.6-1.333-3.6-2-7.533-2-11.8 0-10.4 4.4-18.533 13.2-24.4 8.8-5.867 23-9.8 42.6-11.8-.266-4.4-1.6-7.867-4-10.4-2.266-2.667-6.133-4-11.6-4-4.266 0-8.533.8-12.8 2.4-4.133 1.6-8.6 3.8-13.4 6.6l-10.6-19.4c6.4-3.867 13.067-7 20-9.4 7.067-2.4 14.534-3.6 22.4-3.6 12.8 0 22.534 3.667 29.2 11 6.796 7.2 10.196 18.467 10.196 33.8V197h-23.996l-2-10.2h-.8c-4.266 3.733-8.733 6.8-13.4 9.2-4.666 2.267-9.8 3.4-15.4 3.4zm10-22.8c3.334 0 6.2-.733 8.6-2.2 2.4-1.467 4.934-3.533 7.6-6.2v-17.4c-10.4 1.467-17.6 3.6-21.6 6.4-4 2.8-6 6.133-6 10 0 3.2 1 5.6 3 7.2 2.134 1.467 4.934 2.2 8.4 2.2zm109.156 22.8c-6.14 0-11.4-.933-15.8-2.8-4.27-1.867-7.8-4.467-10.6-7.8-2.67-3.333-4.67-7.333-6-12-1.2-4.8-1.8-10.067-1.8-15.8v-40.2h-13.6V99l15.2-1.2 3.4-26.4h24.4v26.4h23.8v23h-23.8v39.8c0 5.6 1.13 9.667 3.4 12.2 2.4 2.4 5.53 3.6 9.4 3.6 1.6 0 3.2-.2 4.8-.6 1.73-.4 3.26-.867 4.6-1.4l4.6 21.4c-2.67.8-5.8 1.6-9.4 2.4-3.6.8-7.8 1.2-12.6 1.2zM625.169 447.4c-8.534 0-17.067-1.533-25.6-4.6-8.4-3.2-15.934-7.933-22.6-14.2l16.8-20.2c4.666 4 9.8 7.267 15.4 9.8 5.733 2.533 11.333 3.8 16.8 3.8 6.133 0 10.666-1.133 13.6-3.4 3.066-2.267 4.6-5.333 4.6-9.2 0-2-.467-3.733-1.4-5.2-.8-1.467-2.067-2.733-3.8-3.8-1.6-1.2-3.6-2.267-6-3.2-2.267-1.067-4.8-2.2-7.6-3.4l-17-7.2c-3.334-1.333-6.6-3.067-9.8-5.2a49.104 49.104 0 01-8.4-7.4c-2.4-2.933-4.334-6.267-5.8-10-1.467-3.867-2.2-8.2-2.2-13 0-5.333 1.133-10.333 3.4-15 2.266-4.8 5.466-8.933 9.6-12.4 4.133-3.6 9-6.4 14.6-8.4 5.733-2 12-3 18.8-3 7.6 0 15.066 1.467 22.4 4.4 7.466 2.933 14 7.2 19.6 12.8l-15 18.6c-4.267-3.333-8.534-5.867-12.8-7.6-4.267-1.867-9-2.8-14.2-2.8-5.067 0-9.134 1.067-12.2 3.2-2.934 2-4.4 4.867-4.4 8.6 0 2 .466 3.733 1.4 5.2 1.066 1.333 2.466 2.6 4.2 3.8 1.866 1.067 4 2.133 6.4 3.2 2.4.933 5 2 7.8 3.2l16.8 6.8c8 3.2 14.266 7.6 18.8 13.2 4.666 5.6 7 13 7 22.2 0 5.467-1.134 10.667-3.4 15.6-2.134 4.8-5.334 9.067-9.6 12.8-4.134 3.6-9.267 6.533-15.4 8.8-6.134 2.133-13.067 3.2-20.8 3.2zm76.933-2.4V304.8h29.4v34.4l-1.4 17.8c3.733-3.333 8.066-6.4 13-9.2 4.933-2.933 10.8-4.4 17.6-4.4 10.8 0 18.6 3.533 23.4 10.6 4.933 7.067 7.4 16.867 7.4 29.4V445h-29.4v-57.8c0-7.2-1-12.133-3-14.8-1.867-2.667-4.934-4-9.2-4-3.734 0-6.934.867-9.6 2.6-2.667 1.6-5.6 3.933-8.8 7v67h-29.4zm166.657 2.4c-7.066 0-13.666-1.133-19.8-3.4-6.133-2.4-11.466-5.8-16-10.2-4.533-4.533-8.066-10-10.6-16.4-2.533-6.4-3.8-13.733-3.8-22 0-8 1.334-15.2 4-21.6 2.667-6.533 6.134-12 10.4-16.4 4.4-4.533 9.4-8 15-10.4 5.6-2.4 11.4-3.6 17.4-3.6 7.067 0 13.2 1.2 18.4 3.6 5.334 2.4 9.734 5.733 13.2 10 3.6 4.267 6.267 9.333 8 15.2 1.734 5.733 2.6 12 2.6 18.8a68.8 68.8 0 01-.4 7.6c-.266 2.4-.533 4.2-.8 5.4h-59.4c1.334 7.2 4.267 12.533 8.8 16 4.667 3.333 10.334 5 17 5 7.067 0 14.2-2.2 21.4-6.6l9.8 17.8c-5.066 3.467-10.733 6.2-17 8.2-6.133 2-12.2 3-18.2 3zm-22-62.8h35.8c0-5.6-1.266-10.133-3.8-13.6-2.533-3.467-6.8-5.2-12.8-5.2-4.666 0-8.8 1.533-12.4 4.6-3.466 3.067-5.733 7.8-6.8 14.2zm133.516 62.8c-7.067 0-13.667-1.133-19.8-3.4-6.133-2.4-11.467-5.8-16-10.2-4.533-4.533-8.067-10-10.6-16.4-2.533-6.4-3.8-13.733-3.8-22 0-8 1.333-15.2 4-21.6 2.667-6.533 6.133-12 10.4-16.4 4.4-4.533 9.4-8 15-10.4 5.6-2.4 11.4-3.6 17.4-3.6 7.067 0 13.2 1.2 18.4 3.6 5.335 2.4 9.735 5.733 13.205 10 3.6 4.267 6.26 9.333 8 15.2 1.73 5.733 2.6 12 2.6 18.8 0 2.667-.14 5.2-.4 7.6-.27 2.4-.54 4.2-.8 5.4h-59.405c1.333 7.2 4.267 12.533 8.8 16 4.667 3.333 10.333 5 17 5 7.067 0 14.2-2.2 21.405-6.6l9.8 17.8c-5.07 3.467-10.74 6.2-17.005 8.2-6.133 2-12.2 3-18.2 3zm-22-62.8h35.8c0-5.6-1.267-10.133-3.8-13.6-2.533-3.467-6.8-5.2-12.8-5.2-4.667 0-8.8 1.533-12.4 4.6-3.467 3.067-5.733 7.8-6.8 14.2zm125.365 62.8c-6.14 0-11.4-.933-15.8-2.8-4.27-1.867-7.8-4.467-10.6-7.8-2.67-3.333-4.67-7.333-6-12-1.2-4.8-1.8-10.067-1.8-15.8v-40.2h-13.6V347l15.2-1.2 3.4-26.4h24.4v26.4h23.8v23h-23.8v39.8c0 5.6 1.13 9.667 3.4 12.2 2.4 2.4 5.53 3.6 9.4 3.6 1.6 0 3.2-.2 4.8-.6 1.73-.4 3.26-.867 4.6-1.4l4.6 21.4c-2.67.8-5.8 1.6-9.4 2.4-3.6.8-7.8 1.2-12.6 1.2zM578 248h518v8H578z" fill="#fff"/><rect y=".134" width="512" height="511" rx="40" fill="#24292e"/><path d="M251.134 302.724v-130.4h47c6.934 0 13.4.667 19.4 2 6.134 1.334 11.467 3.6 16 6.8 4.534 3.067 8.134 7.2 10.8 12.4 2.667 5.2 4 11.667 4 19.4 0 9.6-2.133 17.534-6.4 23.8-4.133 6.134-9.733 10.734-16.8 13.8l29.6 52.2h-33l-25-47h-16.2v47h-29.4zm29.4-70.4h15.2c7.734 0 13.6-1.6 17.6-4.8 4.134-3.333 6.2-8.2 6.2-14.6s-2.066-10.866-6.2-13.4c-4-2.533-9.866-3.8-17.6-3.8h-15.2v36.6zm77.532 70.4l30.4-51.6-28.6-47.6h31.6l8.8 16a543.36 543.36 0 014 8.6l4.4 8.4h.8c1.066-2.8 2.2-5.6 3.4-8.4 1.2-2.933 2.333-5.8 3.4-8.6l6.8-16h30.4l-28.8 51 30.6 48.2h-31.6l-9.6-16.4c-1.6-2.8-3.2-5.666-4.8-8.6-1.467-2.933-3-5.8-4.6-8.6h-.8c-1.2 2.8-2.467 5.667-3.8 8.6-1.334 2.8-2.6 5.667-3.8 8.6l-7.8 16.4h-30.4zM293.309 453.879c-10 0-18.4-1.933-25.2-5.8-6.666-3.867-12.266-9.8-16.8-17.8l20-14.8c2.4 4.4 5.2 7.667 8.4 9.8 3.2 2.133 6.467 3.2 9.8 3.2 5.334 0 9.334-1.6 12-4.8 2.8-3.333 4.2-9.333 4.2-18v-84.6h29.4v87c0 6.267-.866 12.2-2.6 17.8-1.6 5.6-4.133 10.467-7.6 14.6-3.333 4.133-7.666 7.4-13 9.8-5.2 2.4-11.4 3.6-18.6 3.6zm111.758 0c-8.533 0-17.066-1.533-25.6-4.6-8.4-3.2-15.933-7.933-22.6-14.2l16.8-20.2c4.667 4 9.8 7.267 15.4 9.8 5.734 2.533 11.334 3.8 16.8 3.8 6.134 0 10.667-1.133 13.6-3.4 3.067-2.267 4.6-5.333 4.6-9.2 0-2-.466-3.733-1.4-5.2-.8-1.467-2.066-2.733-3.8-3.8-1.6-1.2-3.6-2.267-6-3.2-2.266-1.067-4.8-2.2-7.6-3.4l-17-7.2c-3.333-1.333-6.6-3.067-9.8-5.2a49.18 49.18 0 01-8.4-7.4c-2.4-2.933-4.333-6.267-5.8-10-1.466-3.867-2.2-8.2-2.2-13 0-5.333 1.134-10.333 3.4-15 2.267-4.8 5.467-8.933 9.6-12.4 4.134-3.6 9-6.4 14.6-8.4 5.734-2 12-3 18.8-3 7.6 0 15.067 1.467 22.4 4.4 7.467 2.933 14 7.2 19.6 12.8l-15 18.6c-4.266-3.333-8.533-5.867-12.8-7.6-4.266-1.867-9-2.8-14.2-2.8-5.066 0-9.133 1.067-12.2 3.2-2.933 2-4.4 4.867-4.4 8.6 0 2 .467 3.733 1.4 5.2 1.067 1.333 2.467 2.6 4.2 3.8 1.867 1.067 4 2.133 6.4 3.2 2.4.933 5 2 7.8 3.2l16.8 6.8c8 3.2 14.267 7.6 18.8 13.2 4.667 5.6 7 13 7 22.2 0 5.467-1.133 10.667-3.4 15.6-2.133 4.8-5.333 9.067-9.6 12.8-4.133 3.6-9.266 6.533-15.4 8.8-6.133 2.133-13.066 3.2-20.8 3.2zM58 154.263h135.044v119.966H58z" fill="#eabd4b"/><path d="M235.578 57.851l-48.069 127.058-95.408-84.921L235.578 57.85z" fill="#eabd4b"/><rect x="58" y="90.159" width="135.044" height="119.966" rx="59.983" fill="#eabd4b"/><rect x="96.142" y="124.043" width="58.76" height="57.578" rx="28.789" fill="#24292e"/></svg>
